<svg xmlns="http://www.w3.org/2000/svg" viewBox="0 0 100 100">
  <!-- Fox head -->
  <circle cx="50" cy="55" r="25" fill="#FF6B35"/>

  <!-- Left ear -->
  <ellipse cx="35" cy="35" rx="8" ry="18" fill="#FF6B35" transform="rotate(-25 35 35)"/>
  <ellipse cx="35" cy="35" rx="4" ry="12" fill="#FFF" transform="rotate(-25 35 35)"/>

  <!-- Right ear -->
  <ellipse cx="65" cy="35" rx="8" ry="18" fill="#FF6B35" transform="rotate(25 65 35)"/>
  <ellipse cx="65" cy="35" rx="4" ry="12" fill="#FFF" transform="rotate(25 65 35)"/>

  <!-- White face patch -->
  <ellipse cx="50" cy="60" rx="18" ry="15" fill="#FFF"/>

  <!-- Eyes -->
  <circle cx="43" cy="52" r="3" fill="#1a1a1a"/>
  <circle cx="57" cy="52" r="3" fill="#1a1a1a"/>
  <circle cx="44" cy="51" r="1" fill="#FFF"/>
  <circle cx="58" cy="51" r="1" fill="#FFF"/>

  <!-- Nose -->
  <circle cx="50" cy="60" r="2.5" fill="#1a1a1a"/>

  <!-- Mouth -->
  <path d="M 50 60 Q 45 63 43 62" stroke="#1a1a1a" stroke-width="1" fill="none"/>
  <path d="M 50 60 Q 55 63 57 62" stroke="#1a1a1a" stroke-width="1" fill="none"/>
</svg>
